<svg xmlns="http://www.w3.org/2000/svg" height="48" viewBox="0 96 960 960" width="48"><path d="M479.435 994.826q-86 0-162.348-33.282-76.348-33.283-132.848-90.066-56.5-56.782-89.783-132.848-33.282-76.065-33.282-162.347 0-86.283 33.282-162.631 33.283-76.348 89.783-133.13 56.5-56.783 132.848-90.348 76.348-33.565 162.348-33.565 86.565 0 163.195 33.565 76.631 33.565 133.131 90.348 56.5 56.782 90.065 133.077T899.391 576q0 86.565-33.565 162.63-33.565 76.066-90.065 132.848-56.5 56.783-133.131 90.066-76.63 33.282-163.195 33.282Zm204.026-510.782 67.452-23.565 17-62.261q-33.435-51.435-82.546-88.597-49.112-37.161-110.324-56.708l-63.695 42.359v67.468l172.113 121.304Zm-406.113 0 171.87-121.493v-67.507l-63.004-42.131q-61.309 19.435-110.435 56.653-49.127 37.217-83.127 88.652l21.566 62.261 63.13 23.565Zm-52.13 317.26 57.826-6.565 37.696-64.13-60.88-187.116-69.251-23.623L144.348 558q0 70.435 16.218 128.37 16.217 57.934 64.652 114.934ZM480 913.348q26.435 0 53.37-5.095 26.934-5.095 57.065-12.024L622 825.652l-31.261-53.261H370.452l-31.322 53.261 32.566 70.577q25.434 6.929 53.652 12.024 28.217 5.095 54.652 5.095ZM375.826 709.565H580l59.87-178.435-159.87-115-162.435 115 58.261 178.435Zm359.956 91.739q47.435-57 63.652-114.934 16.218-57.935 16.218-128.37l-46.313-32.13-68.082 17.565-60.431 187.34 36.13 63.964 58.826 6.565Z" fill="#ffffff"/></svg>